<svg width="67" height="67" viewBox="0 0 67 67" fill="none" xmlns="http://www.w3.org/2000/svg">
<path d="M67 33.5C67 52.0015 52.0015 67 33.5 67C14.9985 67 0 52.0015 0 33.5C0 14.9985 14.9985 0 33.5 0C52.0015 0 67 14.9985 67 33.5Z" fill="black"/>
<path d="M37.6667 13.1429L34 11L30.3333 13.1429L34 15.2857L37.6667 13.1429Z" fill="#FAFAFA"/>
<path d="M34 20.2857L29.6 18.1429L25.9333 20.2857L34 24.5714L42.0667 20.2857L38.4 18.1429L34 20.2857Z" fill="#FAFAFA"/>
<path d="M34 28.8571L25.9333 24.5714L22.2667 26.7143L34 33.8571L45.7333 26.7143L42.0667 24.5714L34 28.8571Z" fill="#FAFAFA"/>
<path d="M31.8 37.4286L20.0667 31V35.2857L27.4 39.5714V48.1429L31.8 50.2857V37.4286Z" fill="#FAFAFA"/>
<path d="M23.7333 41.7143L16.4 37.4286V41.7143L20.0667 43.8571V48.1429L23.7333 50.2857V41.7143Z" fill="#FAFAFA"/>
<path d="M15.6667 46L12 43.8571V48.8571L15.6667 51V46Z" fill="#FAFAFA"/>
<path d="M47.9333 30.2857L36.2 37.4286V51L39.8667 48.8571V39.5714L47.9333 35.2857V30.2857Z" fill="#FAFAFA"/>
<path d="M51.6 37.4286L44.2667 41.7143V50.2857L47.9333 48.1429V43.8571L51.6 41.7143V37.4286Z" fill="#FAFAFA"/>
<path d="M52.3333 50.2857V46L56 43.8571V48.1429L52.3333 50.2857Z" fill="#FAFAFA"/>
</svg>
