<svg width="64" height="64" viewBox="0 0 64 64" fill="none" xmlns="http://www.w3.org/2000/svg">
<path d="M0 0H64V64H0V0Z" fill="#0A0A0A"/>
<path d="M36.75 10.525L32.5 8L28.25 10.525L32.5 13.0501L36.75 10.525Z" fill="#FAFAFA"/>
<path d="M32.5 18.9418L27.4 16.4168L23.15 18.9418L32.5 23.9919L41.85 18.9418L37.6 16.4168L32.5 18.9418Z" fill="#FAFAFA"/>
<path d="M32.5 29.042L23.15 23.9919L18.9 26.517L32.5 34.9337L46.1 26.517L41.85 23.9919L32.5 29.042Z" fill="#FAFAFA"/>
<path d="M29.95 39.1421L16.35 31.567V36.6171L24.85 41.6672V51.7673L29.95 54.2924V39.1421Z" fill="#FAFAFA"/>
<path d="M20.6 44.1922L12.1 39.1421V44.1922L16.35 46.7173V51.7673L20.6 54.2924V44.1922Z" fill="#FAFAFA"/>
<path d="M11.25 49.2423L7 46.7173V52.609L11.25 55.1341V49.2423Z" fill="#FAFAFA"/>
<path d="M48.65 30.7253L35.05 39.1421V55.1341L39.3 52.609V41.6672L48.65 36.6171V30.7253Z" fill="#FAFAFA"/>
<path d="M52.9 39.1421L44.4 44.1922V54.2924L48.65 51.7673V46.7173L52.9 44.1922V39.1421Z" fill="#FAFAFA"/>
<path d="M53.75 54.2924V49.2423L58 46.7173V51.7673L53.75 54.2924Z" fill="#FAFAFA"/>
</svg>
